<mxfile host="app.diagrams.net" agent="Mozilla/5.0 (Macintosh; Intel Mac OS X 10_15_7) AppleWebKit/537.36 (KHTML, like Gecko) Chrome/140.0.0.0 Safari/537.36" version="28.1.2">
  <diagram name="Page-1" id="TyQ4KNwGMOZTe7oc1Tex">
    <mxGraphModel dx="1663" dy="548" grid="1" gridSize="10" guides="1" tooltips="1" connect="1" arrows="1" fold="1" page="1" pageScale="1" pageWidth="850" pageHeight="1100" math="0" shadow="0">
      <root>
        <mxCell id="0" />
        <mxCell id="1" parent="0" />
        <mxCell id="mYIUt5ODPhMRdfRmPxJW-1" value="&lt;font style=&quot;font-size: 14px;&quot;&gt;&lt;span style=&quot;color: rgba(0, 0, 0, 0.9); font-family: -apple-system, &amp;quot;system-ui&amp;quot;, &amp;quot;Segoe UI&amp;quot;, system-ui, -apple-system, &amp;quot;Segoe UI&amp;quot;, Roboto, Ubuntu, Cantarell, &amp;quot;Noto Sans&amp;quot;, sans-serif, Arial, &amp;quot;PingFang SC&amp;quot;, &amp;quot;Source Han Sans SC&amp;quot;, &amp;quot;Microsoft YaHei UI&amp;quot;, &amp;quot;Microsoft YaHei&amp;quot;, &amp;quot;Noto Sans CJK SC&amp;quot;, sans-serif; text-align: left; white-space-collapse: preserve; background-color: rgb(255, 255, 255);&quot;&gt;&lt;b&gt;External Data Sources&lt;br&gt;&lt;/b&gt;( &lt;/span&gt;&lt;span style=&quot;color: rgba(0, 0, 0, 0.9); font-family: -apple-system, &amp;quot;system-ui&amp;quot;, &amp;quot;Segoe UI&amp;quot;, system-ui, -apple-system, &amp;quot;Segoe UI&amp;quot;, Roboto, Ubuntu, Cantarell, &amp;quot;Noto Sans&amp;quot;, sans-serif, Arial, &amp;quot;PingFang SC&amp;quot;, &amp;quot;Source Han Sans SC&amp;quot;, &amp;quot;Microsoft YaHei UI&amp;quot;, &amp;quot;Microsoft YaHei&amp;quot;, &amp;quot;Noto Sans CJK SC&amp;quot;, sans-serif; text-align: left; white-space-collapse: preserve; background-color: rgb(255, 255, 255);&quot;&gt;Fabric &amp;amp; Databricks )&lt;/span&gt;&lt;/font&gt;" style="rounded=0;whiteSpace=wrap;html=1;" vertex="1" parent="1">
          <mxGeometry x="-30" y="160" width="190" height="70" as="geometry" />
        </mxCell>
        <mxCell id="mYIUt5ODPhMRdfRmPxJW-4" value="" style="group" vertex="1" connectable="0" parent="1">
          <mxGeometry x="220" y="170" width="160" height="60" as="geometry" />
        </mxCell>
        <mxCell id="mYIUt5ODPhMRdfRmPxJW-2" value="" style="shape=cylinder3;whiteSpace=wrap;html=1;boundedLbl=1;backgroundOutline=1;size=15;rotation=90;" vertex="1" parent="mYIUt5ODPhMRdfRmPxJW-4">
          <mxGeometry x="50" y="-50" width="60" height="160" as="geometry" />
        </mxCell>
        <mxCell id="mYIUt5ODPhMRdfRmPxJW-3" value="&lt;span style=&quot;color: rgba(0, 0, 0, 0.9); font-family: -apple-system, &amp;quot;system-ui&amp;quot;, &amp;quot;Segoe UI&amp;quot;, system-ui, -apple-system, &amp;quot;Segoe UI&amp;quot;, Roboto, Ubuntu, Cantarell, &amp;quot;Noto Sans&amp;quot;, sans-serif, Arial, &amp;quot;PingFang SC&amp;quot;, &amp;quot;Source Han Sans SC&amp;quot;, &amp;quot;Microsoft YaHei UI&amp;quot;, &amp;quot;Microsoft YaHei&amp;quot;, &amp;quot;Noto Sans CJK SC&amp;quot;, sans-serif; font-size: 16px; text-align: left; white-space-collapse: preserve; background-color: rgb(255, 255, 255);&quot;&gt;Scheduled ETL Pipelines&lt;/span&gt;" style="text;html=1;align=center;verticalAlign=middle;whiteSpace=wrap;rounded=0;" vertex="1" parent="mYIUt5ODPhMRdfRmPxJW-4">
          <mxGeometry x="2" y="17" width="130" height="30" as="geometry" />
        </mxCell>
        <mxCell id="mYIUt5ODPhMRdfRmPxJW-7" value="" style="group" vertex="1" connectable="0" parent="1">
          <mxGeometry x="450" y="148.5" width="90" height="103" as="geometry" />
        </mxCell>
        <mxCell id="mYIUt5ODPhMRdfRmPxJW-5" value="&lt;div style=&quot;text-align: left;&quot;&gt;&lt;font face=&quot;-apple-system, system-ui, Segoe UI, system-ui, -apple-system, Segoe UI, Roboto, Ubuntu, Cantarell, Noto Sans, sans-serif, Arial, PingFang SC, Source Han Sans SC, Microsoft YaHei UI, Microsoft YaHei, Noto Sans CJK SC, sans-serif&quot; color=&quot;rgba(0, 0, 0, 0.9)&quot;&gt;&lt;span style=&quot;font-size: 15px; white-space-collapse: preserve; background-color: rgb(255, 255, 255);&quot;&gt;Vector&lt;br/&gt;Document&lt;br/&gt;Metadata&lt;/span&gt;&lt;/font&gt;&lt;/div&gt;" style="shape=datastore;whiteSpace=wrap;html=1;" vertex="1" parent="mYIUt5ODPhMRdfRmPxJW-7">
          <mxGeometry y="3" width="90" height="100" as="geometry" />
        </mxCell>
        <mxCell id="mYIUt5ODPhMRdfRmPxJW-6" value="&lt;font face=&quot;-apple-system, system-ui, Segoe UI, system-ui, -apple-system, Segoe UI, Roboto, Ubuntu, Cantarell, Noto Sans, sans-serif, Arial, PingFang SC, Source Han Sans SC, Microsoft YaHei UI, Microsoft YaHei, Noto Sans CJK SC, sans-serif&quot; color=&quot;rgba(0, 0, 0, 0.9)&quot;&gt;&lt;span style=&quot;white-space-collapse: preserve; background-color: rgb(255, 255, 255);&quot;&gt;Atlas&lt;/span&gt;&lt;/font&gt;" style="text;whiteSpace=wrap;html=1;fontSize=12;" vertex="1" parent="mYIUt5ODPhMRdfRmPxJW-7">
          <mxGeometry x="27" width="40" height="20" as="geometry" />
        </mxCell>
        <mxCell id="mYIUt5ODPhMRdfRmPxJW-8" style="edgeStyle=orthogonalEdgeStyle;rounded=0;orthogonalLoop=1;jettySize=auto;html=1;entryX=0.5;entryY=1;entryDx=0;entryDy=0;entryPerimeter=0;" edge="1" parent="1" source="mYIUt5ODPhMRdfRmPxJW-1" target="mYIUt5ODPhMRdfRmPxJW-2">
          <mxGeometry relative="1" as="geometry" />
        </mxCell>
        <mxCell id="mYIUt5ODPhMRdfRmPxJW-9" style="edgeStyle=orthogonalEdgeStyle;rounded=0;orthogonalLoop=1;jettySize=auto;html=1;" edge="1" parent="1" source="mYIUt5ODPhMRdfRmPxJW-3" target="mYIUt5ODPhMRdfRmPxJW-5">
          <mxGeometry relative="1" as="geometry" />
        </mxCell>
        <mxCell id="mYIUt5ODPhMRdfRmPxJW-13" style="edgeStyle=orthogonalEdgeStyle;rounded=0;orthogonalLoop=1;jettySize=auto;html=1;entryX=1;entryY=0.5;entryDx=0;entryDy=0;" edge="1" parent="1" source="mYIUt5ODPhMRdfRmPxJW-10" target="mYIUt5ODPhMRdfRmPxJW-11">
          <mxGeometry relative="1" as="geometry" />
        </mxCell>
        <mxCell id="mYIUt5ODPhMRdfRmPxJW-10" value="&lt;span style=&quot;color: rgba(0, 0, 0, 0.9); font-family: -apple-system, &amp;quot;system-ui&amp;quot;, &amp;quot;Segoe UI&amp;quot;, system-ui, -apple-system, &amp;quot;Segoe UI&amp;quot;, Roboto, Ubuntu, Cantarell, &amp;quot;Noto Sans&amp;quot;, sans-serif, Arial, &amp;quot;PingFang SC&amp;quot;, &amp;quot;Source Han Sans SC&amp;quot;, &amp;quot;Microsoft YaHei UI&amp;quot;, &amp;quot;Microsoft YaHei&amp;quot;, &amp;quot;Noto Sans CJK SC&amp;quot;, sans-serif; font-size: 16px; text-align: left; white-space-collapse: preserve; background-color: rgb(255, 255, 255);&quot;&gt;Python Search API&lt;/span&gt;" style="rounded=0;whiteSpace=wrap;html=1;" vertex="1" parent="1">
          <mxGeometry x="450" y="330" width="120" height="60" as="geometry" />
        </mxCell>
        <mxCell id="mYIUt5ODPhMRdfRmPxJW-17" style="edgeStyle=orthogonalEdgeStyle;rounded=0;orthogonalLoop=1;jettySize=auto;html=1;entryX=1;entryY=0.5;entryDx=0;entryDy=0;dashed=1;" edge="1" parent="1" source="mYIUt5ODPhMRdfRmPxJW-11" target="mYIUt5ODPhMRdfRmPxJW-16">
          <mxGeometry relative="1" as="geometry" />
        </mxCell>
        <mxCell id="mYIUt5ODPhMRdfRmPxJW-11" value="&lt;span style=&quot;color: rgba(0, 0, 0, 0.9); font-family: -apple-system, &amp;quot;system-ui&amp;quot;, &amp;quot;Segoe UI&amp;quot;, system-ui, -apple-system, &amp;quot;Segoe UI&amp;quot;, Roboto, Ubuntu, Cantarell, &amp;quot;Noto Sans&amp;quot;, sans-serif, Arial, &amp;quot;PingFang SC&amp;quot;, &amp;quot;Source Han Sans SC&amp;quot;, &amp;quot;Microsoft YaHei UI&amp;quot;, &amp;quot;Microsoft YaHei&amp;quot;, &amp;quot;Noto Sans CJK SC&amp;quot;, sans-serif; font-size: 16px; text-align: left; white-space-collapse: preserve; background-color: rgb(255, 255, 255);&quot;&gt;Agentic AI &lt;/span&gt;&lt;div&gt;&lt;span style=&quot;color: rgba(0, 0, 0, 0.9); font-family: -apple-system, &amp;quot;system-ui&amp;quot;, &amp;quot;Segoe UI&amp;quot;, system-ui, -apple-system, &amp;quot;Segoe UI&amp;quot;, Roboto, Ubuntu, Cantarell, &amp;quot;Noto Sans&amp;quot;, sans-serif, Arial, &amp;quot;PingFang SC&amp;quot;, &amp;quot;Source Han Sans SC&amp;quot;, &amp;quot;Microsoft YaHei UI&amp;quot;, &amp;quot;Microsoft YaHei&amp;quot;, &amp;quot;Noto Sans CJK SC&amp;quot;, sans-serif; font-size: 16px; text-align: left; white-space-collapse: preserve; background-color: rgb(255, 255, 255);&quot;&gt;Layer&lt;/span&gt;&lt;/div&gt;" style="shape=hexagon;perimeter=hexagonPerimeter2;whiteSpace=wrap;html=1;fixedSize=1;" vertex="1" parent="1">
          <mxGeometry x="240" y="320" width="120" height="80" as="geometry" />
        </mxCell>
        <mxCell id="mYIUt5ODPhMRdfRmPxJW-12" style="edgeStyle=orthogonalEdgeStyle;rounded=0;orthogonalLoop=1;jettySize=auto;html=1;entryX=0.5;entryY=0;entryDx=0;entryDy=0;" edge="1" parent="1" source="mYIUt5ODPhMRdfRmPxJW-5" target="mYIUt5ODPhMRdfRmPxJW-10">
          <mxGeometry relative="1" as="geometry" />
        </mxCell>
        <mxCell id="mYIUt5ODPhMRdfRmPxJW-14" value="&lt;font style=&quot;font-size: 14px;&quot;&gt;Query Understanding →&lt;br&gt;&lt;br&gt;Embedding Retrieval → &lt;br&gt;&lt;br&gt;Pluggable Reranker → &lt;br&gt;&lt;br&gt;Autocomplete&lt;/font&gt;" style="text;align=left;verticalAlign=middle;rounded=0;labelBackgroundColor=#FDFF8C;spacing=4;spacingLeft=0;whiteSpace=wrap;html=1;" vertex="1" parent="1">
          <mxGeometry x="230" y="410" width="170" height="140" as="geometry" />
        </mxCell>
        <mxCell id="mYIUt5ODPhMRdfRmPxJW-16" value="&lt;span style=&quot;color: rgba(0, 0, 0, 0.9); font-family: -apple-system, &amp;quot;system-ui&amp;quot;, &amp;quot;Segoe UI&amp;quot;, system-ui, -apple-system, &amp;quot;Segoe UI&amp;quot;, Roboto, Ubuntu, Cantarell, &amp;quot;Noto Sans&amp;quot;, sans-serif, Arial, &amp;quot;PingFang SC&amp;quot;, &amp;quot;Source Han Sans SC&amp;quot;, &amp;quot;Microsoft YaHei UI&amp;quot;, &amp;quot;Microsoft YaHei&amp;quot;, &amp;quot;Noto Sans CJK SC&amp;quot;, sans-serif; font-size: 16px; text-align: left; white-space-collapse: preserve; background-color: rgb(255, 255, 255);&quot;&gt;VoyageAI ReRanker&lt;/span&gt;" style="rounded=0;whiteSpace=wrap;html=1;" vertex="1" parent="1">
          <mxGeometry x="50" y="330" width="120" height="60" as="geometry" />
        </mxCell>
        <mxCell id="mYIUt5ODPhMRdfRmPxJW-18" value="&lt;span style=&quot;font-size: 14px;&quot;&gt;Pluggable&lt;/span&gt;" style="text;align=left;verticalAlign=middle;rounded=0;labelBackgroundColor=#FDFF8C;spacing=4;spacingLeft=0;whiteSpace=wrap;html=1;" vertex="1" parent="1">
          <mxGeometry x="50" y="400" width="75" height="30" as="geometry" />
        </mxCell>
      </root>
    </mxGraphModel>
  </diagram>
</mxfile>
